<svg width="70" height="70" viewBox="0 0 70 70" fill="none" xmlns="http://www.w3.org/2000/svg">
<path d="M59.7917 7.29166H10.2084L14.5834 56.875L35 62.7083L55.4167 56.875L59.7917 7.29166Z" fill="#0277BD"/>
<path d="M35 11.6667V58.1875L51.3333 53.5208L54.9792 11.6667H35Z" fill="#039BE5"/>
<path d="M48.2708 18.9583H35V24.7917H42.1458L41.7083 30.625H35V36.4583H41.4167L40.9792 43.0208L35 45.0625V51.1875L46.5208 47.3958L47.5417 30.625L48.2708 18.9583Z" fill="white"/>
<path d="M35 18.9583V24.7917H22.0209L21.5834 18.9583H35ZM28.2917 30.625L28.5834 36.4583H35V30.625H28.2917ZM28.875 39.375H23.0417L23.4792 47.3958L35 51.1875V45.0625L29.0209 43.0208L28.875 39.375Z" fill="#EEEEEE"/>
</svg>
