<svg width="70" height="70" viewBox="0 0 70 70" fill="none" xmlns="http://www.w3.org/2000/svg">
<path d="M61.5417 32.2292L37.7709 8.45832C37.0417 7.72916 36.0209 7.29166 35.0001 7.29166C33.9792 7.29166 32.9584 7.72916 32.2292 8.45832L27.1251 13.5625L33.1042 19.5417C33.6876 19.25 34.2709 19.1042 35.0001 19.1042C37.4792 19.1042 39.3751 21 39.3751 23.4792C39.3751 24.2083 39.2292 24.7917 38.9376 25.375L44.7709 31.2083C45.3542 30.9167 45.9376 30.7708 46.6667 30.7708C49.1459 30.7708 51.0417 32.6667 51.0417 35.1458C51.0417 37.625 49.1459 39.5208 46.6667 39.5208C44.1876 39.5208 42.2917 37.625 42.2917 35.1458C42.2917 34.4167 42.4376 33.8333 42.7292 33.25L36.8959 27.4167C36.7501 27.4167 36.6042 27.5625 36.4584 27.5625V42.7292C38.2084 43.3125 39.3751 44.9167 39.3751 46.8125C39.3751 49.2917 37.4792 51.1875 35.0001 51.1875C32.5209 51.1875 30.6251 49.2917 30.6251 46.8125C30.6251 44.9167 31.7917 43.3125 33.5417 42.7292V27.4167C31.7917 26.8333 30.6251 25.2292 30.6251 23.3333C30.6251 22.6042 30.7709 22.0208 31.0626 21.4375L25.0834 15.4583L8.45841 32.2292C7.72925 32.9583 7.29175 33.9792 7.29175 35C7.29175 36.0208 7.72925 37.0417 8.45841 37.7708L32.2292 61.5417C32.9584 62.2708 33.9792 62.7083 35.0001 62.7083C36.0209 62.7083 37.0417 62.2708 37.7709 61.5417L61.5417 37.7708C62.2709 37.0417 62.7084 36.0208 62.7084 35C62.7084 33.9792 62.2709 32.9583 61.5417 32.2292Z" fill="#F4511E"/>
</svg>
