<svg width="70" height="70" viewBox="0 0 70 70" fill="none" xmlns="http://www.w3.org/2000/svg">
<path d="M10.4883 10.465L14.3193 53.8796C14.4783 55.6835 15.7339 57.2046 17.4752 57.7019L32.9962 62.1367C34.3058 62.5115 35.6927 62.5115 37.0022 62.1367L52.5233 57.7019C54.2645 57.2046 55.5202 55.685 55.6791 53.8796L59.5102 10.465C59.6618 8.75874 58.3187 7.29166 56.6066 7.29166H13.3933C11.6812 7.29166 10.3381 8.75874 10.4883 10.465Z" fill="url(#paint0_linear_47_38)"/>
<path d="M35 11.6667V58.1875L49.4025 54.0721C50.5648 53.7396 51.4019 52.7246 51.5069 51.5214L54.8406 13.2519C54.915 12.3987 54.2442 11.6667 53.3881 11.6667H35Z" fill="#F09601"/>
<path d="M35 36.4583V30.625H47.5417L46.5208 47.3958L35 51.1875V45.0625L40.9792 43.0208L41.4167 36.4583H35ZM47.9792 24.7917L48.4167 18.9583H35V24.7917H47.9792Z" fill="white"/>
<path d="M35 45.0625V51.1875L23.4791 47.3958L22.8958 39.375H28.7291L29.0208 43.0208L35 45.0625ZM27.8541 24.7917H35V18.9583H21.7291L22.75 36.4583H35V30.625H28.2916L27.8541 24.7917Z" fill="#D6E0E9"/>
<path opacity="0.05" d="M48.4167 18.9583L47.9792 24.7917H35H27.8542L28.2917 30.625H35H47.5417L46.5208 47.3958L35 51.1875L23.4792 47.3958L22.8958 39.375H28.7292L29.0208 43.0208L35 45.0625L40.9792 43.0208L41.4167 36.4583H35H22.75L21.7292 18.9583H35H48.4167ZM49.9888 17.5H48.4167H35H21.7292H20.1833L20.2738 19.0429L21.2946 36.5429L21.3748 37.9167H21.3281L21.4419 39.4815L22.0252 47.5023L22.0967 48.4765L23.0242 48.7813L34.545 52.5729L35 52.7231L35.4565 52.5729L46.9773 48.7813L47.9165 48.4721L47.9763 47.4848L48.9971 30.714L49.0919 29.1667H47.5417H35H29.645L29.4263 26.25H35H47.9792H49.3325L49.4331 24.901L49.8706 19.0677L49.9888 17.5ZM30.0752 37.9167H35H39.8577L39.5879 41.9548L35 43.521L30.3975 41.9504L30.1817 39.2583L30.0752 37.9167Z" fill="black"/>
<path opacity="0.07" d="M48.4167 18.9583L47.9792 24.7917H35H27.8542L28.2917 30.625H35H47.5417L46.5209 47.3958L35 51.1875L23.4792 47.3958L22.8959 39.375H28.7292L29.0209 43.0208L35 45.0625L40.9792 43.0208L41.4167 36.4583H35H22.75L21.7292 18.9583H35H48.4167ZM49.2028 18.2292H48.4167H35H21.7292H20.9563L21.0015 19.0006L22.0223 36.5006L22.0617 37.1875H22.75H35H40.638L40.285 42.4871L35 44.2925L29.7092 42.4856L29.4555 39.3167L29.4015 38.6458H28.7292H22.8959H22.1113L22.1682 39.4275L22.7515 47.4483L22.7865 47.9354L23.2503 48.0885L34.7711 51.8802L35 51.9546L35.2275 51.8802L46.7484 48.0885L47.218 47.9339L47.2486 47.4396L48.2694 30.6687L48.3161 29.8958H47.5417H35H28.9684L28.6403 25.5208H35H47.9792H48.6559L48.7069 24.8456L49.1444 19.0123L49.2028 18.2292Z" fill="black"/>
<defs>
<linearGradient id="paint0_linear_47_38" x1="26.5533" y1="3.51895" x2="49.8152" y2="67.4275" gradientUnits="userSpaceOnUse">
<stop stop-color="#F09701"/>
<stop offset="1" stop-color="#E36001"/>
</linearGradient>
</defs>
</svg>
