<svg width="70" height="70" viewBox="0 0 70 70" fill="none" xmlns="http://www.w3.org/2000/svg">
<path d="M27.6703 45.9375C27.6703 47.145 26.6918 48.125 25.4828 48.125C24.2739 48.125 23.2953 47.145 23.2953 45.9375V25.5208C23.2953 24.5686 23.9122 23.7256 24.8193 23.4354C25.7307 23.1467 26.718 23.4792 27.2678 24.2565L51.7343 58.8248C59.233 53.534 64.1666 44.8219 64.1666 35C64.1666 18.9583 51.0416 5.83334 34.9999 5.83334C18.9583 5.83334 5.83325 18.9583 5.83325 35C5.83325 51.0417 18.9583 64.1667 34.9999 64.1667C39.6549 64.1667 44.0503 63.0335 47.9645 61.0721L27.6703 32.3983V45.9375ZM42.2537 24.0625C42.2537 22.855 43.2322 21.875 44.4412 21.875C45.6501 21.875 46.6287 22.855 46.6287 24.0625V44.2458L42.2537 38.0815V24.0625Z" fill="#212121"/>
</svg>
