<svg width="70" height="70" viewBox="0 0 70 70" fill="none" xmlns="http://www.w3.org/2000/svg">
<path d="M33.6 2.79999C23.5648 2.79999 15.4 14.4092 15.4 28.6808C15.4 36.0535 17.5909 42.6925 21.0847 47.4031C20.9531 48.1103 20.9787 48.8377 21.1598 49.5338C21.341 50.2299 21.6731 50.8776 22.1327 51.4309C22.5923 51.9842 23.1681 52.4296 23.8192 52.7353C24.4703 53.041 25.1807 53.1997 25.9 53.2C27.1995 53.2 28.4459 52.6837 29.3648 51.7648C30.2837 50.8459 30.8 49.5995 30.8 48.3C30.8 47.0004 30.2837 45.7541 29.3648 44.8352C28.4459 43.9162 27.1995 43.4 25.9 43.4C25.6333 43.402 25.3671 43.4258 25.1043 43.4711C22.601 39.7421 21 34.456 21 28.6808C21 17.6866 26.7708 8.39999 33.6 8.39999C39.3666 8.39999 44.3648 15.0325 45.7844 23.7125C47.7752 24.2837 49.7583 25.0564 51.7015 25.9902C50.7523 12.9786 42.9968 2.79999 33.6 2.79999ZM31.5 23.8C30.2004 23.8 28.9541 24.3162 28.0352 25.2352C27.1162 26.1541 26.6 27.4004 26.6 28.7C26.6 29.9995 27.1162 31.2459 28.0352 32.1648C28.9541 33.0837 30.2004 33.6 31.5 33.6C32.416 33.5995 33.3135 33.3423 34.0906 32.8575C34.8678 32.3727 35.4936 31.6798 35.8969 30.8574C40.4465 30.5725 45.7045 31.9761 50.5586 34.8851C60.1626 40.6433 65.3853 50.7123 61.9609 56.8723C60.8353 58.8967 58.8075 60.3525 56.0957 61.0777C52.1911 62.1221 47.4029 61.5911 42.6863 59.6941C41.1897 61.0857 39.5442 62.3921 37.748 63.5933C42.4072 65.9467 47.3347 67.1945 51.8875 67.1945C53.8615 67.1945 55.7669 66.9623 57.5449 66.4863C61.7547 65.3593 64.9753 62.9754 66.8554 59.593C71.873 50.5644 65.9791 37.6016 53.4379 30.0836C47.4704 26.5046 40.8597 24.8553 35.0492 25.3312C34.5923 24.8487 34.0421 24.4641 33.432 24.2008C32.8218 23.9376 32.1645 23.8012 31.5 23.8ZM12.8242 32.6539C2.9108 40.3133 -1.34116 51.5192 3.14724 59.593C5.02744 62.9754 8.24799 65.3593 12.4578 66.4863C14.2372 66.9623 16.1384 67.1945 18.1152 67.1945C23.4352 67.1945 29.274 65.5055 34.5898 62.3191C40.5368 58.7537 44.934 53.9612 47.4277 48.948C49.8793 48.681 51.8 46.6214 51.8 44.1C51.8 41.398 49.602 39.2 46.9 39.2C44.198 39.2 42 41.398 42 44.1C42 44.8563 42.1849 45.5653 42.4922 46.2055C40.4707 50.3701 36.6988 54.5235 31.7105 57.5148C25.6961 61.1212 19.0395 62.4539 13.9043 61.0777C11.1939 60.3525 9.16738 58.8967 8.04178 56.8723C5.33418 52.0003 8.04479 44.6928 14.041 38.9976C13.4656 36.9816 13.0538 34.8589 12.8242 32.6539Z" fill="black"/>
</svg>
